PathFileType	4	(X/Y/Z)	39_2_46_p1_0-410.trc
DataRate	CameraRate	NumFrames	NumMarkers	Units	OrigDataRate	OrigDataStartFrame	OrigNumFrames
50.0	50.0	5	27	m	50.0	308	411
Frame#	Time	RHip			RKnee			RAnkle			RBigToe			RSmallToe			RHeel			LHip			LKnee			LAnkle			LBigToe			LSmallToe			LHeel			Neck			Head			Nose			RShoulder			RElbow			RWrist			RThumb			RIndex			RPinky			LShoulder			LElbow			LWrist			LThumb			LIndex			LPinky			
		X1	Y1	Z1	X2	Y2	Z2	X3	Y3	Z3	X4	Y4	Z4	X5	Y5	Z5	X6	Y6	Z6	X7	Y7	Z7	X8	Y8	Z8	X9	Y9	Z9	X10	Y10	Z10	X11	Y11	Z11	X12	Y12	Z12	X13	Y13	Z13	X14	Y14	Z14	X15	Y15	Z15	X16	Y16	Z16	X17	Y17	Z17	X18	Y18	Z18	X19	Y19	Z19	X20	Y20	Z20	X21	Y21	Z21	X22	Y22	Z22	X23	Y23	Z23	X24	Y24	Z24	X25	Y25	Z25	X26	Y26	Z26	X27	Y27	Z27	
308	6.16	0.3195267373849035	0.6851134103605031	0.4795175991317708	0.2684366814259139	0.7809836059863571	0.937227916463861	0.22230574942070358	0.8431051363783363	1.3250380023456956	0.210268108704781	0.6519629953975031	1.34663919799356	0.2755809883955036	0.6887136967979416	1.3632619502341812	0.19219459627202293	0.9162780484947278	1.3857507415246566	0.09074400979926865	0.692375794677457	0.4625867623997735	0.06201506266008061	0.7539452568795494	0.8928472779368799	0.029389451331794655	0.8341828983654435	1.302700622162567	0.061180048275444626	0.655185709693294	1.3280398224884342	0.0007089274953373136	0.6945648018633656	1.3363014363030241	0.037709388180773275	0.8675342770936697	1.3528969023122739	0.24387429945938044	0.6013567953703179	-0.062382982538336476	0.261064857165938	0.52261501324562	-0.29105045541639524	0.25255766532594387	0.47299779802036157	-0.16492692706599066	0.4088588889689325	0.6638870824963345	0.027273590658566195	0.4233802884777927	0.708132296016287	0.2960896277306372	0.4317044406084856	0.672286764774799	0.5369271468863726	0.3822399378681233	0.6396879319901594	0.6622758600913307	0.39697229796001593	0.6544028825617507	0.6868169306193209	0.41713049982224054	0.7419528891482745	0.6952877647838429	0.0792777879047227	0.6553156046273504	0.015426019065289431	0.006168579985959454	0.6834133542133831	0.2739473983265129	-0.01680287422628731	0.6498331552509442	0.5317379167814548	0.025963240126880838	0.6312636512633815	0.6364585761947666	0.005627372571636043	0.6241993724343344	0.6443504789931905	-0.047452087475302	0.689370702593281	0.6505384990920257
309	6.18	0.31925955982989923	0.6833454229642102	0.4750259096024064	0.26441267343389757	0.7648299540394911	0.9275799066804244	0.22230233294790278	0.8434487944339258	1.3252415556237438	0.21029166547750863	0.6517815327182689	1.3464320370824527	0.27550233866839513	0.6884977097841457	1.3631805580535534	0.19537996317623402	0.9321269444210847	1.3929307184198958	0.09626185427990805	0.6762917147921211	0.45535148253309005	0.05991287925852819	0.7399285512119571	0.8884838462262584	0.02937789754684614	0.8342567094677633	1.3026917111762841	0.058484584043868706	0.6417444394321982	1.3251533033308023	0.0006833197398721744	0.6946463507180402	1.3363133108720893	0.040736642822446996	0.873820873600829	1.3610770812124648	0.24390575794464947	0.6012806010073903	-0.06218836354487916	0.26098739488408634	0.5236061174352804	-0.2843979042585458	0.25220534762581787	0.47325413101816965	-0.16183696101607978	0.4088901748169358	0.6638737004929938	0.027395570557739383	0.42293387822694806	0.7087006308479137	0.29977718419989907	0.43163968758748805	0.6722725847846277	0.5369384806133959	0.38191386134652894	0.6391396573503817	0.6623219485310791	0.39680295918830993	0.652920731107178	0.6905480572384304	0.4166400175270965	0.7398603835379406	0.6905557000587423	0.07931183659495517	0.6550413629371286	0.015518240327814627	0.01203159727126151	0.6691980579047306	0.2723385836389864	-0.016612024976104468	0.6490729428597962	0.5353240911818318	0.02966811612010931	0.6339810720502895	0.6371535840787497	0.0057306602415161225	0.6242629636752272	0.6442656069636619	-0.04745368684756385	0.6896526012346762	0.6505171568723099
310	6.2	0.31919122303477815	0.6835947379552231	0.47516120734936507	0.2683864932251793	0.7685216501647593	0.9248431799715368	0.22225796279859789	0.843364664811424	1.3251455007289712	0.20961877902983347	0.6498532031863827	1.3413703778925914	0.27540927821764316	0.688577047840543	1.3631904159464132	0.19543625374250062	0.9321174697138267	1.3927770404634134	0.09072199057693298	0.6925897507105269	0.46251788876024574	0.06190218869758654	0.7539743154727605	0.8927414357388723	0.029108799700748006	0.8354435667070687	1.2988665096464678	0.05961342244938151	0.6410161608651821	1.3213656710818487	0.0018623247304886497	0.6942754312686858	1.3324835442051393	0.036248264486820815	0.8689556667401755	1.3588958688317494	0.24355908438854476	0.6028077922938607	-0.05512473358522632	0.2609830273560063	0.5235509393325113	-0.2841238006528985	0.2520777871401455	0.4734191754344015	-0.16167583920176543	0.40880908733821314	0.6652364372956011	0.038535063533473274	0.4229610652724961	0.7088273547914554	0.2999951654032825	0.43150155317270134	0.672530727272501	0.5371442540681076	0.37823151606205957	0.6373097652079088	0.6620719421824913	0.3966831190108385	0.653001144389826	0.6945565044966682	0.41248193637687347	0.7547074236877689	0.6943799054711175	0.07924050224828166	0.6563968703872746	0.019438471427409017	0.011732232646570183	0.670220321872211	0.2840008693550607	-0.010423197134484922	0.6353155603050465	0.5327131446698595	0.029937347315672967	0.6331635977956506	0.6370318571140655	0.009909013130249967	0.6243754183968688	0.6443090948803158	-0.04736088290347646	0.6891668657718821	0.6505951134969927
311	6.22	0.3192244317170717	0.6835359413261982	0.47514098994052917	0.26431011361987483	0.7661171260956242	0.9240329297437695	0.21946733347586392	0.8279096855030184	1.318560301423093	0.207485744072984	0.6387369764538054	1.3403825272747967	0.2754212525998567	0.6884001142155144	1.3632062234477815	0.196186133009544	0.9342984032401639	1.398199122098553	0.09047450413728535	0.6906239239680185	0.4577369916120911	0.06193732079895954	0.7538193518252893	0.8926511008334644	0.033507983888436906	0.8186350025660123	1.2913480757435642	0.05966045059182854	0.6408498935834281	1.3213718903789236	0.002054299333428969	0.6935855531893662	1.3322310635931902	0.03596617839219801	0.8662549804736708	1.353654909814204	0.24352880192731494	0.6025915883384952	-0.05499485369438454	0.2607276675089791	0.523524649233405	-0.27730868507580714	0.25216563364370087	0.4732767583208653	-0.16156505192631546	0.4088221555334536	0.6650265673143076	0.03867806325026153	0.42295401357346046	0.708712145609901	0.3001154585423451	0.4270298754897431	0.690472289564514	0.5486843534893484	0.3723180256337894	0.6531914486302015	0.6700217101001545	0.3912832215136331	0.6697210216333965	0.6990367973205609	0.4120507612505641	0.7569398062494358	0.7030673956246359	0.07926336104708645	0.6562392106951574	0.01953525924990579	0.01153881123646037	0.6704987656209374	0.280031122936282	-0.010300485065839981	0.6352468181135753	0.5327799700572856	0.030544664376527884	0.633638790879525	0.6374740517313335	0.009350832287381186	0.6247358652982214	0.647712645640299	-0.04728276513034969	0.6892125053840478	0.6508129864141712
312	6.24	0.3192050035351544	0.6837970572697288	0.4751973740187746	0.2653754470611888	0.7651276696485403	0.9189729863093918	0.2193810872465409	0.827620244146168	1.3182300993705383	0.2076360133359592	0.6391884141965821	1.3404063417608547	0.2755965189765584	0.6878630114735873	1.362878976655333	0.19217075146318485	0.9164281865360696	1.385629790017957	0.09054454695888255	0.6909485825025007	0.45775205762618426	0.06209131240169857	0.753598059662408	0.8922782665974685	0.028843210140058768	0.8322856840083956	1.2972041203077012	0.06111865080691519	0.6553028219565353	1.3278542921288778	0.0017392272468965248	0.6946633780962207	1.3325507123598244	0.037227767184772165	0.8659393117911538	1.3487445171743062	0.24350323530601836	0.6022939387384323	-0.05483501179844426	0.26072532776831703	0.5235038612283854	-0.27721615527098026	0.24938988633070938	0.4619368952433204	-0.15472138523258466	0.40883117280518483	0.6645755982383004	0.04272422661014821	0.4230229996463631	0.7079511260089135	0.3038100871835966	0.42735232331175066	0.6924318111199477	0.553439381847	0.3672675363613271	0.6552166893892943	0.6758276228186809	0.3910082979163013	0.6716510721759529	0.6999361082995169	0.4161994545190727	0.7416939828666648	0.6990624242072094	0.07882921170156959	0.6564962100189934	0.022799937480885994	0.011126226363229824	0.6713476289960973	0.28790598556911795	-0.010319168757851846	0.6355645166216748	0.5331068682396547	0.033404757479813925	0.6482723453115684	0.6449830538874084	0.009503717454333803	0.62508785972188	0.6482088755533064	-0.04690483603718874	0.690503751740381	0.6556290868258917
